name C:/MyDriveSym/Projects/mobilecap/Data\Session20210825_0002\mocap\ForceDataProcessed\walkingTS1_forces.mot
datacolumns 19
datarows 29
range 0.00000000 0.01400000
endheader 
time	R_ground_force_vx	R_ground_force_vy	R_ground_force_vz	R_ground_force_px	R_ground_force_py	R_ground_force_pz	R_ground_torque_x	R_ground_torque_y	R_ground_torque_z	L_ground_force_vx	L_ground_force_vy	L_ground_force_vz	L_ground_force_px	L_ground_force_py	L_ground_force_pz	L_ground_torque_x	L_ground_torque_y	L_ground_torque_z	
          0.00000000	       -103.60318100	        493.61892200	         -7.39498200	          0.15284700	          0.00600000	         -0.16937000	          0.00000000	          0.80931300	          0.00000000	          0.00000000	          0.00000000	          0.00000000	          0.69220600	          0.00000000	         -0.24798900	          0.00000000	          0.00000000	          0.00000000	
          0.00050000	       -103.71936600	        494.41414000	         -7.54678400	          0.15284700	          0.00600000	         -0.16937000	          0.00000000	          0.81212100	          0.00000000	          0.00000000	          0.00000000	          0.00000000	          0.69220600	          0.00000000	         -0.24798900	          0.00000000	          0.00000000	          0.00000000	
          0.00100000	       -103.83562400	        495.21583300	         -7.69911000	          0.15284700	          0.00600000	         -0.16937000	          0.00000000	          0.81496300	          0.00000000	          0.00000000	          0.00000000	          0.00000000	          0.69220600	          0.00000000	         -0.24798900	          0.00000000	          0.00000000	          0.00000000	
          0.00150000	       -103.95193800	        496.02398800	         -7.85194500	          0.15284700	          0.00600000	         -0.16937000	          0.00000000	          0.81783800	          0.00000000	          0.00000000	          0.00000000	          0.00000000	          0.69220600	          0.00000000	         -0.24798900	          0.00000000	          0.00000000	          0.00000000	
          0.00200000	       -104.06829000	        496.83859400	         -8.00527500	          0.15299700	          0.00600000	         -0.16935500	          0.00000000	          0.82074500	          0.00000000	          0.00000000	          0.00000000	          0.00000000	          0.69220600	          0.00000000	         -0.24798900	          0.00000000	          0.00000000	          0.00000000	
          0.00250000	       -104.18466300	        497.65963600	         -8.15908500	          0.15314600	          0.00600000	         -0.16934000	          0.00000000	          0.82368600	          0.00000000	          0.00000000	          0.00000000	          0.00000000	          0.69220600	          0.00000000	         -0.24798900	          0.00000000	          0.00000000	          0.00000000	
          0.00300000	       -104.30104000	        498.48710000	         -8.31335900	          0.15329700	          0.00600000	         -0.16932500	          0.00000000	          0.82665900	          0.00000000	          0.00000000	          0.00000000	          0.00000000	          0.69220600	          0.00000000	         -0.24798900	          0.00000000	          0.00000000	          0.00000000	
          0.00350000	       -104.41740200	        499.32096900	         -8.46808400	          0.15344800	          0.00600000	         -0.16931000	          0.00000000	          0.82966400	          0.00000000	          0.00000000	          0.00000000	          0.00000000	          0.69220600	          0.00000000	         -0.24798900	          0.00000000	          0.00000000	          0.00000000	
          0.00400000	       -104.53373200	        500.16122500	         -8.62324200	          0.15359900	          0.00600000	         -0.16929500	          0.00000000	          0.83270100	          0.00000000	          0.00000000	          0.00000000	          0.00000000	          0.69220600	          0.00000000	         -0.24798900	          0.00000000	          0.00000000	          0.00000000	
          0.00450000	       -104.65001100	        501.00784900	         -8.77882000	          0.15375100	          0.00600000	         -0.16928100	          0.00000000	          0.83577000	          0.00000000	          0.00000000	          0.00000000	          0.00000000	          0.69220600	          0.00000000	         -0.24798900	          0.00000000	          0.00000000	          0.00000000	
          0.00500000	       -104.76622100	        501.86082300	         -8.93480100	          0.15390300	          0.00600000	         -0.16926600	          0.00000000	          0.83887000	          0.00000000	          0.00000000	          0.00000000	          0.00000000	          0.69220600	          0.00000000	         -0.24798900	          0.00000000	          0.00000000	          0.00000000	
          0.00550000	       -104.88234400	        502.72012300	         -9.09116900	          0.15405600	          0.00600000	         -0.16925100	          0.00000000	          0.84200100	          0.00000000	          0.00000000	          0.00000000	          0.00000000	          0.69220600	          0.00000000	         -0.24798900	          0.00000000	          0.00000000	          0.00000000	
          0.00600000	       -104.99836100	        503.58572800	         -9.24790900	          0.15420900	          0.00600000	         -0.16923700	          0.00000000	          0.84516200	          0.00000000	          0.00000000	          0.00000000	          0.00000000	          0.69220600	          0.00000000	         -0.24798900	          0.00000000	          0.00000000	          0.00000000	
          0.00650000	       -105.11425200	        504.45761400	         -9.40500500	          0.15436200	          0.00600000	         -0.16922200	          0.00000000	          0.84835400	          0.00000000	          0.00000000	          0.00000000	          0.00000000	          0.69220600	          0.00000000	         -0.24798900	          0.00000000	          0.00000000	          0.00000000	
          0.00700000	       -105.22999900	        505.33575500	         -9.56244000	          0.15451600	          0.00600000	         -0.16920800	          0.00000000	          0.85157500	          0.00000000	          0.00000000	          0.00000000	          0.00000000	          0.69220600	          0.00000000	         -0.24798900	          0.00000000	          0.00000000	          0.00000000	
          0.00750000	       -105.34558300	        506.22012500	         -9.72019900	          0.15467000	          0.00600000	         -0.16919400	          0.00000000	          0.85482500	          0.00000000	          0.00000000	          0.00000000	          0.00000000	          0.69220600	          0.00000000	         -0.24798900	          0.00000000	          0.00000000	          0.00000000	
          0.00800000	       -105.46098300	        507.11069600	         -9.87826500	          0.15482500	          0.00600000	         -0.16917900	          0.00000000	          0.85810500	          0.00000000	          0.00000000	          0.00000000	          0.00000000	          0.69220600	          0.00000000	         -0.24798900	          0.00000000	          0.00000000	          0.00000000	
          0.00850000	       -105.57618100	        508.00743900	        -10.03662100	          0.15498000	          0.00600000	         -0.16916500	          0.00000000	          0.86141200	          0.00000000	          0.00000000	          0.00000000	          0.00000000	          0.69220600	          0.00000000	         -0.24798900	          0.00000000	          0.00000000	          0.00000000	
          0.00900000	       -105.69115600	        508.91032200	        -10.19525100	          0.15513500	          0.00600000	         -0.16915100	          0.00000000	          0.86474700	          0.00000000	          0.00000000	          0.00000000	          0.00000000	          0.69220600	          0.00000000	         -0.24798900	          0.00000000	          0.00000000	          0.00000000	
          0.00950000	       -105.80588900	        509.81931300	        -10.35413900	          0.15529100	          0.00600000	         -0.16913700	          0.00000000	          0.86811000	          0.00000000	          0.00000000	          0.00000000	          0.00000000	          0.69220600	          0.00000000	         -0.24798900	          0.00000000	          0.00000000	          0.00000000	
          0.01000000	       -105.92035900	        510.73437900	        -10.51326800	          0.15544700	          0.00600000	         -0.16912400	          0.00000000	          0.87149900	          0.00000000	          0.00000000	          0.00000000	          0.00000000	          0.69220600	          0.00000000	         -0.24798900	          0.00000000	          0.00000000	          0.00000000	
          0.01050000	       -106.03454700	        511.65548500	        -10.67262000	          0.15560300	          0.00600000	         -0.16911000	          0.00000000	          0.87491300	          0.00000000	          0.00000000	          0.00000000	          0.00000000	          0.69220600	          0.00000000	         -0.24798900	          0.00000000	          0.00000000	          0.00000000	
          0.01100000	       -106.14843100	        512.58259200	        -10.83217900	          0.15576000	          0.00600000	         -0.16909600	          0.00000000	          0.87835400	          0.00000000	          0.00000000	          0.00000000	          0.00000000	          0.69220600	          0.00000000	         -0.24798900	          0.00000000	          0.00000000	          0.00000000	
          0.01150000	       -106.26199200	        513.51566400	        -10.99192900	          0.15591700	          0.00600000	         -0.16908300	          0.00000000	          0.88181800	          0.00000000	          0.00000000	          0.00000000	          0.00000000	          0.69220600	          0.00000000	         -0.24798900	          0.00000000	          0.00000000	          0.00000000	
          0.01200000	       -106.37520800	        514.45465900	        -11.15185100	          0.15607400	          0.00600000	         -0.16906900	          0.00000000	          0.88530700	          0.00000000	          0.00000000	          0.00000000	          0.00000000	          0.69220600	          0.00000000	         -0.24798900	          0.00000000	          0.00000000	          0.00000000	
          0.01250000	       -106.48805800	        515.39953700	        -11.31192800	          0.15623100	          0.00600000	         -0.16905600	          0.00000000	          0.88882000	          0.00000000	          0.00000000	          0.00000000	          0.00000000	          0.69220600	          0.00000000	         -0.24798900	          0.00000000	          0.00000000	          0.00000000	
          0.01300000	       -106.60052200	        516.35025300	        -11.47214400	          0.15638800	          0.00600000	         -0.16904300	          0.00000000	          0.89235400	          0.00000000	          0.00000000	          0.00000000	          0.00000000	          0.69220600	          0.00000000	         -0.24798900	          0.00000000	          0.00000000	          0.00000000	
          0.01350000	       -106.71257900	        517.30676400	        -11.63248100	          0.15654600	          0.00600000	         -0.16903000	          0.00000000	          0.89591100	          0.00000000	          0.00000000	          0.00000000	          0.00000000	          0.69220600	          0.00000000	         -0.24798900	          0.00000000	          0.00000000	          0.00000000	
          0.01400000	       -106.82420600	        518.26902100	        -11.79292100	          0.15670400	          0.00600000	         -0.16901700	          0.00000000	          0.89948900	          0.00000000	          0.00000000	          0.00000000	          0.00000000	          0.69220600	          0.00000000	         -0.24798900	          0.00000000	          0.00000000	          0.00000000	
